<?xml version="1.0" ?>
<!-- Uploaded to: SVG Repo, www.svgrepo.com, Generator: SVG Repo Mixer Tools -->
<svg width="800px" height="800px" viewBox="0 0 32 32" xmlns="http://www.w3.org/2000/svg">
<defs>
<style>.cls-1{fill:none;}.cls-2{fill:#e291a8;}.cls-3{fill:#dd2853;}</style>
</defs>
<title/>
<g data-name="Layer 18" id="Layer_18">
<path class="cls-1" d="M26,4H6A2,2,0,0,0,4,6V28h6a3,3,0,1,1,3-3,3,3,0,0,1-3,3H28V6A2,2,0,0,0,26,4ZM23,27H18a1,1,0,0,1,0-2h5a1,1,0,0,1,0,2Zm0-3H18a1,1,0,0,1,0-2h5a1,1,0,0,1,0,2Z"/>
<circle class="cls-1" cx="10" cy="25" r="1"/>
<path class="cls-2" d="M26,2H6A4,4,0,0,0,2,6V28a2,2,0,0,0,2,2H28a2,2,0,0,0,2-2V6A4,4,0,0,0,26,2Z"/>
<circle class="cls-3" cx="10" cy="25" r="3"/>
<path class="cls-3" d="M18,24h5a1,1,0,0,0,0-2H18a1,1,0,0,0,0,2Z"/>
<path class="cls-3" d="M23,25H18a1,1,0,0,0,0,2h5a1,1,0,0,0,0-2Z"/>
<path class="cls-3" d="M22.11,6H9.89A3.9,3.9,0,0,0,6,9.89V20a1,1,0,0,0,1,1H25a1,1,0,0,0,1-1V9.89A3.9,3.9,0,0,0,22.11,6Z"/>
<path class="cls-2" d="M23,15H19.72L19,12.68a1,1,0,0,0-.82-.67,1,1,0,0,0-1,.44l-1,1.41-1.29-3.23A1,1,0,0,0,14.1,10a1,1,0,0,0-.93.44L11.46,13H9a1,1,0,0,0,0,2h3a1,1,0,0,0,.83-.45l.95-1.41,1.29,3.23a1,1,0,0,0,.83.62H16a1,1,0,0,0,.83-.45l.87-1.29.35,1.06A1,1,0,0,0,19,17h4a1,1,0,0,0,0-2Z"/>
</g>
</svg>