<?xml version="1.0" ?>
<!-- Uploaded to: SVG Repo, www.svgrepo.com, Generator: SVG Repo Mixer Tools -->
<svg width="800px" height="800px" viewBox="0 0 32 32" xmlns="http://www.w3.org/2000/svg">
<defs>
<style>.cls-1{fill:#e291a8;}.cls-2{fill:none;stroke:#dd2853;stroke-linecap:round;stroke-linejoin:round;stroke-width:2px;}.cls-3{fill:#dd2853;}</style>
</defs>
<title/>
<g data-name="Layer 8" id="Layer_8">
<path class="cls-1" d="M26,20A10,10,0,0,1,6,20a10,10,0,0,1,5-8.65V7a1,1,0,0,1,1-1h8a1,1,0,0,1,1,1v4.35A10,10,0,0,1,26,20Z"/>
<path class="cls-2" d="M8.61,15.6c1.53,3.27,4.93.55,7.39,2.77,2.46-2.22,5.86.5,7.39-2.77"/>
<path class="cls-3" d="M17,10a1.16,1.16,0,0,1-1.27,1H11V9h4.73A1.16,1.16,0,0,1,17,10Z"/>
<path class="cls-3" d="M21,2H11a3,3,0,0,0,0,6H21a3,3,0,0,0,0-6Z"/>
</g>
</svg>